nColumns=19
nRows=58
DataType=double
version=3
OpenSimVersion=4.1
endheader
time	ground_force_calcn_r_vx	ground_force_calcn_r_vy	ground_force_calcn_r_vz	ground_force_calcn_r_px	ground_force_calcn_r_py	ground_force_calcn_r_pz	ground_force_calcn_r_mx	ground_force_calcn_r_my	ground_force_calcn_r_mz	ground_force_calcn_l_vx	ground_force_calcn_l_vy	ground_force_calcn_l_vz	ground_force_calcn_l_px	ground_force_calcn_l_py	ground_force_calcn_l_pz	ground_force_calcn_l_mx	ground_force_calcn_l_my	ground_force_calcn_l_mz
6.4	-0.767937	308.638	-41.1014	-0.169546	0	-0.364	0.00624569	-2.51017	0.334281	-17.6815	335.266	45.7944	-0.131532	0	-0.781227	-0.165811	3.14399	0.429442
6.41	-0.982442	305.808	-40.6221	-0.168816	0	-0.363971	0.00799383	-2.48827	0.33053	-17.9526	333.784	45.4229	-0.130777	0	-0.781052	-0.167005	3.10506	0.42255
6.42	-1.15317	303.028	-40.1601	-0.168223	0	-0.363971	0.00940801	-2.47222	0.327642	-18.1565	332.384	45.0778	-0.130169	0	-0.780873	-0.168096	3.07727	0.417339
6.43	-1.2748	300.298	-39.7094	-0.167772	0	-0.363998	0.0104509	-2.46186	0.32554	-18.2924	331.046	44.7594	-0.129707	0	-0.780695	-0.169127	3.06077	0.413834
6.44	-1.34273	297.621	-39.2646	-0.167461	0	-0.364052	0.0110845	-2.4569	0.324136	-18.3589	329.755	44.4663	-0.129388	0	-0.78052	-0.17012	3.05561	0.412039
6.45	-1.35379	295.003	-38.8225	-0.16729	0	-0.364133	0.0112752	-2.45697	0.323338	-18.3532	328.491	44.1956	-0.129211	0	-0.780347	-0.171063	3.06172	0.411929
6.46	-1.30657	292.459	-38.3813	-0.16725	0	-0.364241	0.0109969	-2.4615	0.323039	-18.2729	327.233	43.944	-0.129168	0	-0.780179	-0.171921	3.07878	0.413448
6.47	-1.20264	290.008	-37.9413	-0.167333	0	-0.364375	0.0102422	-2.46982	0.323123	-18.1169	325.961	43.707	-0.129251	0	-0.780015	-0.172646	3.10627	0.416509
6.48	-1.04801	287.668	-37.5047	-0.167527	0	-0.364533	0.0090387	-2.48104	0.323466	-17.8861	324.658	43.4795	-0.12945	0	-0.779854	-0.173179	3.14344	0.420982
6.49	-0.853473	285.456	-37.0749	-0.167812	0	-0.364712	0.00745715	-2.49415	0.323939	-17.583	323.318	43.2566	-0.12975	0	-0.779696	-0.173439	3.18922	0.426684
6.5	-0.633452	283.384	-36.6558	-0.168165	0	-0.364908	0.00560626	-2.50804	0.324416	-17.2114	321.944	43.0349	-0.13014	0	-0.779538	-0.173327	3.24211	0.43338
6.51	-0.403214	281.461	-36.2511	-0.168565	0	-0.365117	0.00361231	-2.52155	0.324766	-16.7773	320.545	42.8116	-0.130605	0	-0.779381	-0.17274	3.30035	0.440791
6.52	-0.175862	279.698	-35.864	-0.16899	0	-0.365339	0.00159298	-2.53354	0.32486	-16.2881	319.137	42.5847	-0.131134	0	-0.779223	-0.171583	3.36187	0.448598
6.53	0.0379637	278.108	-35.4972	-0.169419	0	-0.365566	-0.00034714	-2.54302	0.324587	-15.7526	317.74	42.3531	-0.131716	0	-0.779063	-0.169783	3.42463	0.456486
6.54	0.228949	276.701	-35.1534	-0.169836	0	-0.365798	-0.00210926	-2.5492	0.323862	-15.1797	316.371	42.1165	-0.132339	0	-0.7789	-0.1673	3.48683	0.464179
6.55	0.388454	275.49	-34.8353	-0.170229	0	-0.366029	-0.00359786	-2.55159	0.322644	-14.5797	315.047	41.8749	-0.132995	0	-0.778731	-0.164146	3.54697	0.471451
6.56	0.508985	274.489	-34.547	-0.170584	0	-0.366256	-0.00472861	-2.55008	0.320952	-13.9635	313.787	41.6291	-0.133672	0	-0.778555	-0.160374	3.60393	0.478122
6.57	0.585692	273.711	-34.294	-0.170901	0	-0.366475	-0.00544564	-2.54491	0.318859	-13.3417	312.614	41.3811	-0.134364	0	-0.778372	-0.156069	3.6569	0.484067
6.58	0.617327	273.176	-34.0833	-0.171181	0	-0.366683	-0.00573234	-2.53664	0.316489	-12.7231	311.559	41.1349	-0.135067	0	-0.778182	-0.151318	3.70542	0.489224
6.59	0.605708	272.908	-33.9239	-0.17143	0	-0.366878	-0.00560669	-2.52615	0.314015	-12.1148	310.656	40.8977	-0.135777	0	-0.777984	-0.146214	3.74934	0.493598
6.6	0.554661	272.928	-33.8259	-0.171657	0	-0.367054	-0.00511019	-2.51453	0.311644	-11.5235	309.942	40.679	-0.136488	0	-0.777782	-0.140864	3.78876	0.497266
6.61	0.469825	273.258	-33.7983	-0.171873	0	-0.367212	-0.00430356	-2.50302	0.309589	-10.9563	309.447	40.4892	-0.137199	0	-0.77758	-0.135397	3.82411	0.500361
6.62	0.35905	273.919	-33.849	-0.17209	0	-0.367348	-0.00326758	-2.49283	0.308047	-10.4202	309.198	40.3381	-0.137907	0	-0.777381	-0.12995	3.85599	0.503053
6.63	0.233207	274.932	-33.9846	-0.172319	0	-0.367464	-0.00210797	-2.48512	0.307188	-9.921	309.214	40.2341	-0.138611	0	-0.77719	-0.124645	3.88488	0.505489
6.64	0.106158	276.318	-34.2108	-0.172573	0	-0.367557	-0.000953137	-2.48092	0.307162	-9.46249	309.509	40.1847	-0.139312	0	-0.777011	-0.119571	3.91105	0.507787
6.65	-0.00717499	278.099	-34.5326	-0.172862	0	-0.367625	6.40146e-05	-2.48117	0.308097	-9.04647	310.089	40.1968	-0.14001	0	-0.776848	-0.114783	3.93446	0.510024
6.66	-0.0924672	280.295	-34.9556	-0.173195	0	-0.367671	0.000820305	-2.48658	0.310102	-8.67259	310.963	40.2765	-0.140701	0	-0.776705	-0.110301	3.95493	0.51225
6.67	-0.13644	282.928	-35.4859	-0.173581	0	-0.367691	0.00120444	-2.49758	0.313257	-8.33842	312.136	40.4297	-0.14139	0	-0.776586	-0.106117	3.97232	0.514518
6.68	-0.12716	286.018	-36.1295	-0.174027	0	-0.367685	0.00111783	-2.51431	0.317606	-8.04011	313.615	40.6616	-0.142076	0	-0.776495	-0.102208	3.98674	0.516899
6.69	-0.0546025	289.586	-36.8922	-0.174532	0	-0.367655	0.000478306	-2.53671	0.323168	-7.77302	315.405	40.977	-0.142764	0	-0.776432	-0.0985415	3.99851	0.51948
6.7	0.088725	293.651	-37.7788	-0.175099	0	-0.367599	-0.000774885	-2.56462	0.329943	-7.53212	317.509	41.3795	-0.143456	0	-0.776399	-0.0950807	4.00803	0.522348
6.71	0.307543	298.225	-38.7925	-0.175726	0	-0.36752	-0.00267882	-2.59767	0.337899	-7.31248	319.93	41.8717	-0.144155	0	-0.776395	-0.0917862	4.01576	0.525573
6.72	0.603582	303.315	-39.9358	-0.176408	0	-0.367417	-0.00524391	-2.63519	0.346962	-7.11005	322.664	42.4553	-0.144864	0	-0.776419	-0.0886275	4.02204	0.529211
6.73	0.976103	308.914	-41.2099	-0.177139	0	-0.367295	-0.00845646	-2.67627	0.357021	-6.92136	325.705	43.1307	-0.145586	0	-0.776468	-0.0855797	4.0272	0.533293
6.74	1.42208	314.999	-42.6131	-0.17791	0	-0.367153	-0.0122786	-2.71978	0.367932	-6.7429	329.036	43.8957	-0.146321	0	-0.77654	-0.0826171	4.0315	0.53783
6.75	1.93648	321.525	-44.1395	-0.17871	0	-0.366994	-0.0166501	-2.76451	0.379517	-6.57097	332.631	44.7452	-0.147068	0	-0.77663	-0.0797101	4.03503	0.542788
6.76	2.51312	328.422	-45.7767	-0.179528	0	-0.366822	-0.0214968	-2.80926	0.391565	-6.40239	336.445	45.6702	-0.147829	0	-0.776735	-0.0768325	4.03755	0.54807
6.77	3.146	335.605	-47.5066	-0.180355	0	-0.366643	-0.0267429	-2.85284	0.403834	-6.2354	340.42	46.6576	-0.148597	0	-0.776848	-0.0739716	4.03845	0.553506
6.78	3.82968	342.969	-49.3065	-0.18118	0	-0.366461	-0.0323153	-2.89402	0.416055	-6.06947	344.478	47.6904	-0.149368	0	-0.776964	-0.0711262	4.03683	0.558869
6.79	4.55866	350.399	-51.152	-0.181996	0	-0.366279	-0.0381386	-2.9315	0.427947	-5.90406	348.536	48.7494	-0.150136	0	-0.777075	-0.0682942	4.03163	0.5639
6.8	5.32726	357.776	-53.0193	-0.182796	0	-0.366104	-0.0441338	-2.96401	0.43924	-5.73773	352.507	49.8144	-0.150897	0	-0.777176	-0.0654623	4.02179	0.568337
6.81	6.1296	364.991	-54.8869	-0.183572	0	-0.365938	-0.0502186	-2.9903	0.449678	-5.56752	356.314	50.8662	-0.151644	0	-0.777261	-0.0626017	4.00642	0.571944
6.82	6.95887	371.945	-56.7347	-0.184319	0	-0.365785	-0.0563011	-3.00924	0.459015	-5.38887	359.893	51.8889	-0.152379	0	-0.777327	-0.0596675	3.98487	0.574532
6.83	7.80605	378.556	-58.5444	-0.185038	0	-0.365648	-0.0622713	-3.01986	0.467028	-5.19629	363.203	52.8712	-0.153099	0	-0.777371	-0.0566074	3.95666	0.575969
6.84	8.6589	384.757	-60.2986	-0.185727	0	-0.365528	-0.0679984	-3.0215	0.473525	-4.98423	366.219	53.8074	-0.153807	0	-0.777392	-0.0533706	3.92143	0.576163
6.85	9.50086	390.487	-61.9798	-0.186384	0	-0.36543	-0.0733275	-3.01377	0.478359	-4.74757	368.934	54.6954	-0.154506	0	-0.777392	-0.0499134	3.87877	0.575038
6.86	10.3119	395.694	-63.5709	-0.187011	0	-0.365354	-0.0780918	-2.99659	0.481423	-4.48103	371.351	55.5366	-0.155201	0	-0.777372	-0.0461963	3.82837	0.572543
6.87	11.0717	400.336	-65.0561	-0.187609	0	-0.365302	-0.0821403	-2.97008	0.48265	-4.17854	373.481	56.3332	-0.155898	0	-0.777333	-0.0421802	3.7701	0.568655
6.88	11.7629	404.387	-66.4208	-0.188177	0	-0.365275	-0.0853619	-2.9346	0.482009	-3.83413	375.335	57.0872	-0.156604	0	-0.777277	-0.0378373	3.70401	0.563367
6.89	12.3726	407.837	-67.6531	-0.188721	0	-0.365273	-0.087694	-2.89064	0.479507	-3.44329	376.92	57.7984	-0.157324	0	-0.777207	-0.0331646	3.63036	0.556694
6.9	12.8922	410.686	-68.7446	-0.189242	0	-0.365297	-0.0891117	-2.83869	0.475167	-3.00367	378.238	58.4637	-0.158062	0	-0.777121	-0.0281891	3.54972	0.548674
6.91	13.3155	412.941	-69.6905	-0.189743	0	-0.365346	-0.0896144	-2.77912	0.469022	-2.51568	379.288	59.0781	-0.158821	0	-0.777021	-0.0229676	3.46283	0.539372
6.92	13.6378	414.608	-70.4883	-0.190224	0	-0.365418	-0.0892163	-2.7123	0.461123	-1.98247	380.065	59.637	-0.159602	0	-0.776906	-0.017581	3.3705	0.528873
6.93	13.8535	415.686	-71.1374	-0.190683	0	-0.365508	-0.087936	-2.6386	0.451551	-1.41006	380.56	60.1366	-0.160405	0	-0.776779	-0.0121291	3.2735	0.517282
6.94	13.9555	416.166	-71.6379	-0.191118	0	-0.365611	-0.0857973	-2.55855	0.440424	-0.807176	380.765	60.5747	-0.161227	0	-0.776639	-0.00672554	3.1726	0.504719
6.95	13.9359	416.033	-71.9912	-0.191527	0	-0.365724	-0.0828325	-2.47282	0.427901	-0.186021	380.666	60.95	-0.162064	0	-0.77649	-0.00149955	3.0686	0.491328
6.96	13.7865	415.269	-72.1999	-0.191902	0	-0.36584	-0.0790921	-2.38236	0.414205	0.436711	380.246	61.2618	-0.16291	0	-0.776331	0.00340228	2.96239	0.477273
6.97	13.5006	413.856	-72.2675	-0.192242	0	-0.365956	-0.0746549	-2.28851	0.39962	1.03972	379.485	61.5087	-0.16376	0	-0.776166	0.00782185	2.85488	0.462733
